<?xml version="1.0" encoding="UTF-8"?>
<svg xmlns="http://www.w3.org/2000/svg" xmlns:xlink="http://www.w3.org/1999/xlink" width="233" height="260" viewBox="0 0 233 260">
<path fill-rule="nonzero" fill="rgb(100%, 100%, 100%)" fill-opacity="1" d="M 0 259.644531 L 0 0.355469 L 233.003906 0.355469 L 233.003906 259.644531 Z M 0 259.644531 "/>
<path fill="none" stroke-width="1" stroke-linecap="butt" stroke-linejoin="miter" stroke="rgb(0%, 0%, 0%)" stroke-opacity="1" stroke-miterlimit="4" d="M 141.28469 -162.00096 C 141.28469 -152.059665 124.155739 -143.998521 103.023634 -143.998521 C 81.891529 -143.998521 64.762577 -152.059665 64.762577 -162.00096 C 64.762577 -171.942254 81.891529 -179.999481 103.023634 -179.999481 C 124.155739 -179.999481 141.28469 -171.942254 141.28469 -162.00096 Z M 141.28469 -162.00096 " transform="matrix(0.997261, 0, 0, 0.997261, 3.989043, 255.654854)"/>
<path fill-rule="nonzero" fill="rgb(0%, 0%, 0%)" fill-opacity="1" d="M 92.125 88.886719 C 92.667969 88.886719 93.199219 88.960938 93.722656 89.109375 C 94.246094 89.261719 94.546875 89.335938 94.621094 89.335938 C 94.820312 89.335938 94.964844 89.296875 95.046875 89.21875 C 95.132812 89.140625 95.203125 89.03125 95.265625 88.886719 L 95.570312 88.886719 L 95.679688 91.824219 L 95.359375 91.824219 C 95.070312 91.144531 94.777344 90.644531 94.472656 90.308594 C 93.921875 89.726562 93.207031 89.4375 92.324219 89.4375 C 91.429688 89.4375 90.640625 89.777344 89.964844 90.457031 C 89.28125 91.132812 88.941406 92.257812 88.941406 93.8125 C 88.941406 95.101562 89.28125 96.105469 89.960938 96.828125 C 90.636719 97.550781 91.472656 97.914062 92.46875 97.914062 C 92.636719 97.914062 92.835938 97.898438 93.0625 97.867188 C 93.285156 97.835938 93.503906 97.78125 93.707031 97.714844 C 94.042969 97.605469 94.25 97.511719 94.332031 97.429688 C 94.414062 97.351562 94.453125 97.234375 94.453125 97.078125 L 94.453125 94.851562 C 94.453125 94.3125 94.378906 93.980469 94.226562 93.847656 C 94.074219 93.71875 93.738281 93.636719 93.222656 93.605469 L 93.222656 93.34375 L 96.785156 93.34375 L 96.785156 93.605469 C 96.4375 93.628906 96.207031 93.683594 96.09375 93.773438 C 95.90625 93.917969 95.8125 94.21875 95.8125 94.671875 L 95.8125 97.421875 C 95.8125 97.585938 95.410156 97.804688 94.605469 98.074219 C 93.804688 98.347656 93.035156 98.484375 92.289062 98.484375 C 90.925781 98.484375 89.777344 98.085938 88.84375 97.289062 C 87.808594 96.414062 87.296875 95.234375 87.296875 93.757812 C 87.296875 92.457031 87.703125 91.34375 88.527344 90.417969 C 89.429688 89.398438 90.632812 88.886719 92.125 88.886719 Z M 97.105469 98.058594 C 97.519531 98.023438 97.796875 97.953125 97.933594 97.839844 C 98.070312 97.730469 98.140625 97.492188 98.140625 97.125 L 98.140625 94.050781 C 98.140625 93.605469 98.097656 93.28125 98.011719 93.089844 C 97.929688 92.894531 97.773438 92.796875 97.550781 92.796875 C 97.507812 92.796875 97.445312 92.804688 97.375 92.816406 C 97.300781 92.828125 97.222656 92.839844 97.136719 92.859375 L 97.136719 92.632812 C 97.398438 92.542969 97.660156 92.449219 97.933594 92.355469 C 98.207031 92.261719 98.398438 92.195312 98.5 92.152344 C 98.730469 92.066406 98.960938 91.96875 99.203125 91.859375 C 99.234375 91.859375 99.253906 91.871094 99.261719 91.890625 C 99.269531 91.914062 99.269531 91.964844 99.269531 92.035156 L 99.269531 93.152344 C 99.5625 92.746094 99.84375 92.429688 100.113281 92.207031 C 100.382812 91.980469 100.664062 91.867188 100.953125 91.867188 C 101.1875 91.867188 101.375 91.933594 101.523438 92.074219 C 101.667969 92.210938 101.738281 92.382812 101.738281 92.59375 C 101.738281 92.78125 101.679688 92.9375 101.574219 93.066406 C 101.460938 93.191406 101.320312 93.253906 101.152344 93.253906 C 100.980469 93.253906 100.804688 93.175781 100.628906 93.015625 C 100.453125 92.855469 100.316406 92.777344 100.222656 92.777344 C 100.0625 92.777344 99.863281 92.90625 99.632812 93.164062 C 99.402344 93.421875 99.285156 93.6875 99.285156 93.957031 L 99.285156 97.03125 C 99.285156 97.421875 99.375 97.695312 99.558594 97.847656 C 99.738281 98 100.042969 98.070312 100.460938 98.058594 L 100.460938 98.285156 L 97.105469 98.285156 Z M 105.695312 94.507812 C 105.171875 94.683594 104.738281 94.875 104.402344 95.085938 C 103.746094 95.488281 103.417969 95.945312 103.417969 96.460938 C 103.417969 96.871094 103.554688 97.175781 103.828125 97.375 C 104.003906 97.5 104.203125 97.5625 104.421875 97.5625 C 104.71875 97.5625 105.007812 97.480469 105.28125 97.3125 C 105.558594 97.144531 105.695312 96.929688 105.695312 96.667969 Z M 102.203125 96.929688 C 102.203125 96.273438 102.535156 95.71875 103.191406 95.277344 C 103.609375 95.007812 104.445312 94.636719 105.695312 94.167969 L 105.695312 93.589844 C 105.695312 93.125 105.652344 92.800781 105.558594 92.621094 C 105.402344 92.316406 105.082031 92.164062 104.597656 92.164062 C 104.367188 92.164062 104.144531 92.226562 103.9375 92.339844 C 103.726562 92.464844 103.621094 92.632812 103.621094 92.847656 C 103.621094 92.902344 103.632812 92.992188 103.65625 93.121094 C 103.679688 93.253906 103.691406 93.335938 103.691406 93.371094 C 103.691406 93.628906 103.605469 93.800781 103.4375 93.902344 C 103.34375 93.960938 103.226562 93.992188 103.097656 93.992188 C 102.894531 93.992188 102.738281 93.921875 102.628906 93.789062 C 102.519531 93.660156 102.464844 93.507812 102.464844 93.34375 C 102.464844 93.027344 102.660156 92.691406 103.054688 92.34375 C 103.445312 92 104.023438 91.824219 104.78125 91.824219 C 105.664062 91.824219 106.257812 92.109375 106.574219 92.683594 C 106.742188 92.996094 106.828125 93.453125 106.828125 94.050781 L 106.828125 96.785156 C 106.828125 97.050781 106.84375 97.230469 106.882812 97.332031 C 106.941406 97.507812 107.0625 97.597656 107.25 97.597656 C 107.355469 97.597656 107.4375 97.582031 107.507812 97.550781 C 107.574219 97.519531 107.695312 97.441406 107.863281 97.320312 L 107.863281 97.671875 C 107.714844 97.851562 107.558594 97.996094 107.390625 98.105469 C 107.140625 98.28125 106.878906 98.367188 106.617188 98.367188 C 106.304688 98.367188 106.082031 98.265625 105.945312 98.066406 C 105.808594 97.871094 105.730469 97.628906 105.714844 97.351562 C 105.371094 97.652344 105.074219 97.875 104.828125 98.019531 C 104.417969 98.265625 104.023438 98.386719 103.648438 98.386719 C 103.257812 98.386719 102.921875 98.25 102.636719 97.976562 C 102.347656 97.703125 102.203125 97.351562 102.203125 96.929688 Z M 111.199219 91.84375 C 111.53125 91.84375 111.832031 91.917969 112.109375 92.0625 C 112.292969 92.160156 112.46875 92.292969 112.636719 92.457031 L 112.636719 90.289062 C 112.636719 90.011719 112.605469 89.820312 112.542969 89.714844 C 112.480469 89.609375 112.335938 89.558594 112.105469 89.558594 C 112.050781 89.558594 112 89.5625 111.960938 89.566406 C 111.917969 89.570312 111.828125 89.578125 111.6875 89.59375 L 111.6875 89.371094 L 112.246094 89.226562 C 112.453125 89.171875 112.65625 89.117188 112.863281 89.054688 C 113.0625 88.996094 113.242188 88.941406 113.398438 88.886719 C 113.472656 88.863281 113.59375 88.820312 113.761719 88.757812 L 113.800781 88.769531 L 113.789062 89.484375 C 113.785156 89.742188 113.777344 90.011719 113.773438 90.285156 C 113.769531 90.5625 113.765625 90.835938 113.765625 91.101562 L 113.753906 96.667969 C 113.753906 96.964844 113.789062 97.171875 113.863281 97.289062 C 113.9375 97.410156 114.128906 97.46875 114.445312 97.46875 C 114.492188 97.46875 114.539062 97.46875 114.589844 97.464844 C 114.640625 97.460938 114.691406 97.457031 114.742188 97.449219 L 114.742188 97.671875 C 114.714844 97.683594 114.386719 97.796875 113.753906 98.011719 L 112.683594 98.414062 L 112.636719 98.355469 L 112.636719 97.515625 C 112.382812 97.792969 112.160156 97.992188 111.972656 98.105469 C 111.640625 98.3125 111.257812 98.414062 110.820312 98.414062 C 110.050781 98.414062 109.421875 98.117188 108.941406 97.519531 C 108.464844 96.921875 108.226562 96.230469 108.226562 95.441406 C 108.226562 94.457031 108.515625 93.613281 109.085938 92.902344 C 109.664062 92.199219 110.363281 91.84375 111.199219 91.84375 Z M 111.453125 97.679688 C 111.804688 97.679688 112.089844 97.574219 112.308594 97.367188 C 112.527344 97.15625 112.636719 96.957031 112.636719 96.773438 L 112.636719 93.847656 C 112.636719 93.257812 112.476562 92.839844 112.160156 92.597656 C 111.84375 92.351562 111.539062 92.234375 111.238281 92.234375 C 110.664062 92.234375 110.21875 92.484375 109.902344 92.992188 C 109.582031 93.5 109.425781 94.121094 109.425781 94.867188 C 109.425781 95.597656 109.59375 96.25 109.933594 96.820312 C 110.269531 97.394531 110.777344 97.679688 111.453125 97.679688 Z M 118.070312 91.890625 C 118.710938 91.890625 119.269531 92.113281 119.753906 92.554688 C 120.234375 93 120.472656 93.628906 120.472656 94.441406 L 116.144531 94.441406 C 116.191406 95.496094 116.429688 96.265625 116.863281 96.742188 C 117.296875 97.226562 117.804688 97.46875 118.398438 97.46875 C 118.871094 97.46875 119.273438 97.34375 119.601562 97.09375 C 119.929688 96.84375 120.230469 96.492188 120.507812 96.03125 L 120.746094 96.113281 C 120.558594 96.6875 120.210938 97.222656 119.703125 97.714844 C 119.191406 98.203125 118.566406 98.449219 117.824219 98.449219 C 116.96875 98.449219 116.308594 98.125 115.84375 97.484375 C 115.378906 96.835938 115.144531 96.09375 115.144531 95.25 C 115.144531 94.339844 115.414062 93.550781 115.953125 92.886719 C 116.496094 92.226562 117.203125 91.890625 118.070312 91.890625 Z M 117.671875 92.386719 C 117.15625 92.386719 116.761719 92.617188 116.488281 93.078125 C 116.34375 93.324219 116.238281 93.632812 116.171875 94.003906 L 119.050781 94.003906 C 119 93.550781 118.914062 93.210938 118.789062 92.988281 C 118.570312 92.589844 118.195312 92.386719 117.671875 92.386719 Z M 121.789062 96.140625 L 122.011719 96.140625 C 122.117188 96.65625 122.257812 97.054688 122.4375 97.332031 C 122.757812 97.84375 123.21875 98.09375 123.832031 98.09375 C 124.175781 98.09375 124.441406 98.003906 124.640625 97.8125 C 124.839844 97.625 124.9375 97.378906 124.9375 97.078125 C 124.9375 96.886719 124.878906 96.703125 124.765625 96.527344 C 124.652344 96.351562 124.453125 96.179688 124.167969 96.011719 L 123.402344 95.574219 C 122.847656 95.273438 122.433594 94.972656 122.171875 94.667969 C 121.90625 94.363281 121.773438 94 121.773438 93.589844 C 121.773438 93.082031 121.957031 92.660156 122.320312 92.332031 C 122.683594 92.007812 123.140625 91.84375 123.691406 91.84375 C 123.933594 91.84375 124.199219 91.890625 124.484375 91.980469 C 124.773438 92.070312 124.933594 92.117188 124.972656 92.117188 C 125.054688 92.117188 125.113281 92.105469 125.148438 92.085938 C 125.1875 92.0625 125.21875 92.023438 125.246094 91.976562 L 125.410156 91.976562 L 125.457031 93.875 L 125.246094 93.875 C 125.15625 93.4375 125.03125 93.089844 124.875 92.847656 C 124.59375 92.390625 124.191406 92.164062 123.65625 92.164062 C 123.335938 92.164062 123.085938 92.265625 122.90625 92.457031 C 122.726562 92.652344 122.632812 92.882812 122.632812 93.144531 C 122.632812 93.566406 122.949219 93.9375 123.574219 94.265625 L 124.472656 94.75 C 125.445312 95.273438 125.925781 95.890625 125.925781 96.585938 C 125.925781 97.125 125.726562 97.5625 125.324219 97.90625 C 124.921875 98.246094 124.398438 98.414062 123.746094 98.414062 C 123.472656 98.414062 123.160156 98.371094 122.820312 98.277344 C 122.472656 98.1875 122.269531 98.140625 122.203125 98.140625 C 122.148438 98.140625 122.101562 98.160156 122.0625 98.199219 C 122.019531 98.238281 121.988281 98.285156 121.964844 98.339844 L 121.789062 98.339844 Z M 86.960938 87.816406 "/>
<path fill="none" stroke-width="1" stroke-linecap="butt" stroke-linejoin="miter" stroke="rgb(0%, 0%, 0%)" stroke-opacity="1" stroke-miterlimit="4" d="M 206.071533 -89.99904 C 206.071533 -80.057746 159.93343 -72.000519 103.023634 -72.000519 C 46.113837 -72.000519 -0.0242657 -80.057746 -0.0242657 -89.99904 C -0.0242657 -99.940335 46.113837 -108.001479 103.023634 -108.001479 C 159.93343 -108.001479 206.071533 -99.940335 206.071533 -89.99904 Z M 206.071533 -89.99904 " transform="matrix(0.997261, 0, 0, 0.997261, 3.989043, 255.654854)"/>
<path fill-rule="nonzero" fill="rgb(0%, 0%, 0%)" fill-opacity="1" d="M 40.773438 169.835938 C 41.289062 169.78125 41.625 169.691406 41.777344 169.558594 C 41.929688 169.429688 42 169.105469 42 168.578125 L 42 162.363281 C 42 161.871094 41.929688 161.546875 41.78125 161.394531 C 41.628906 161.242188 41.292969 161.148438 40.773438 161.109375 L 40.773438 160.851562 L 48.191406 160.851562 L 48.238281 162.855469 L 47.886719 162.855469 C 47.765625 162.234375 47.59375 161.839844 47.355469 161.65625 C 47.117188 161.472656 46.589844 161.382812 45.773438 161.382812 L 43.875 161.382812 C 43.671875 161.382812 43.546875 161.417969 43.496094 161.484375 C 43.449219 161.550781 43.425781 161.671875 43.425781 161.855469 L 43.425781 164.96875 L 45.574219 164.96875 C 46.171875 164.96875 46.546875 164.878906 46.710938 164.707031 C 46.875 164.527344 47.007812 164.167969 47.109375 163.625 L 47.4375 163.625 L 47.4375 166.855469 L 47.109375 166.855469 C 47.003906 166.316406 46.871094 165.960938 46.707031 165.785156 C 46.542969 165.609375 46.167969 165.523438 45.574219 165.523438 L 43.425781 165.523438 L 43.425781 168.980469 C 43.425781 169.253906 43.511719 169.417969 43.6875 169.46875 C 43.863281 169.519531 44.390625 169.542969 45.261719 169.542969 C 46.207031 169.542969 46.90625 169.4375 47.355469 169.230469 C 47.800781 169.027344 48.207031 168.527344 48.566406 167.726562 L 48.957031 167.726562 L 48.324219 170.089844 L 40.773438 170.089844 Z M 52.453125 163.644531 C 52.785156 163.644531 53.089844 163.71875 53.363281 163.863281 C 53.546875 163.960938 53.722656 164.09375 53.890625 164.261719 L 53.890625 162.089844 C 53.890625 161.816406 53.859375 161.625 53.796875 161.519531 C 53.734375 161.414062 53.589844 161.363281 53.359375 161.363281 C 53.308594 161.363281 53.257812 161.367188 53.21875 161.371094 C 53.175781 161.375 53.085938 161.382812 52.945312 161.398438 L 52.945312 161.171875 L 53.5 161.027344 C 53.707031 160.972656 53.910156 160.917969 54.117188 160.855469 C 54.320312 160.796875 54.5 160.742188 54.65625 160.6875 C 54.730469 160.664062 54.847656 160.621094 55.015625 160.5625 L 55.054688 160.574219 L 55.042969 161.289062 C 55.039062 161.546875 55.03125 161.816406 55.027344 162.085938 C 55.023438 162.363281 55.019531 162.636719 55.019531 162.90625 L 55.007812 168.472656 C 55.007812 168.769531 55.042969 168.976562 55.117188 169.09375 C 55.191406 169.210938 55.382812 169.269531 55.699219 169.269531 C 55.75 169.269531 55.796875 169.269531 55.847656 169.265625 C 55.898438 169.261719 55.949219 169.257812 56 169.25 L 56 169.472656 C 55.972656 169.484375 55.640625 169.597656 55.007812 169.816406 L 53.9375 170.21875 L 53.890625 170.160156 L 53.890625 169.316406 C 53.636719 169.59375 53.414062 169.792969 53.230469 169.910156 C 52.898438 170.117188 52.511719 170.21875 52.074219 170.21875 C 51.304688 170.21875 50.675781 169.921875 50.199219 169.320312 C 49.71875 168.726562 49.480469 168.03125 49.480469 167.246094 C 49.480469 166.261719 49.769531 165.414062 50.34375 164.707031 C 50.917969 164 51.621094 163.644531 52.453125 163.644531 Z M 52.707031 169.480469 C 53.0625 169.480469 53.34375 169.375 53.5625 169.167969 C 53.78125 168.960938 53.890625 168.761719 53.890625 168.578125 L 53.890625 165.652344 C 53.890625 165.058594 53.730469 164.644531 53.414062 164.402344 C 53.101562 164.15625 52.792969 164.035156 52.492188 164.035156 C 51.917969 164.035156 51.476562 164.289062 51.15625 164.796875 C 50.835938 165.300781 50.679688 165.925781 50.679688 166.667969 C 50.679688 167.402344 50.847656 168.050781 51.1875 168.625 C 51.527344 169.195312 52.03125 169.480469 52.707031 169.480469 Z M 58.289062 163.777344 L 58.289062 168.140625 C 58.289062 168.449219 58.332031 168.695312 58.417969 168.882812 C 58.585938 169.226562 58.894531 169.398438 59.34375 169.398438 C 59.652344 169.398438 59.957031 169.296875 60.253906 169.09375 C 60.421875 168.980469 60.589844 168.824219 60.761719 168.625 L 60.761719 164.886719 C 60.761719 164.539062 60.691406 164.308594 60.558594 164.199219 C 60.425781 164.089844 60.148438 164.023438 59.742188 164 L 59.742188 163.777344 L 61.941406 163.777344 L 61.941406 168.578125 C 61.941406 168.886719 61.996094 169.097656 62.109375 169.210938 C 62.21875 169.328125 62.457031 169.378906 62.816406 169.363281 L 62.816406 169.558594 C 62.566406 169.625 62.378906 169.675781 62.261719 169.710938 C 62.144531 169.746094 61.945312 169.808594 61.671875 169.898438 C 61.550781 169.941406 61.292969 170.039062 60.890625 170.191406 C 60.867188 170.191406 60.855469 170.183594 60.851562 170.160156 C 60.847656 170.140625 60.84375 170.117188 60.84375 170.089844 L 60.84375 168.992188 C 60.535156 169.359375 60.253906 169.632812 60 169.808594 C 59.613281 170.082031 59.203125 170.21875 58.773438 170.21875 C 58.378906 170.21875 58.003906 170.078125 57.652344 169.796875 C 57.300781 169.519531 57.125 169.054688 57.125 168.398438 L 57.125 164.859375 C 57.125 164.496094 57.046875 164.253906 56.890625 164.128906 C 56.789062 164.050781 56.578125 164 56.25 163.964844 L 56.25 163.777344 Z M 66.578125 163.660156 C 67.148438 163.660156 67.632812 163.804688 68.046875 164.101562 C 68.460938 164.394531 68.664062 164.714844 68.664062 165.0625 C 68.664062 165.214844 68.613281 165.355469 68.507812 165.484375 C 68.402344 165.613281 68.242188 165.679688 68.023438 165.679688 C 67.863281 165.679688 67.722656 165.625 67.601562 165.515625 C 67.484375 165.40625 67.398438 165.246094 67.34375 165.035156 L 67.261719 164.710938 C 67.203125 164.46875 67.097656 164.300781 66.953125 164.199219 C 66.800781 164.105469 66.605469 164.054688 66.359375 164.054688 C 65.84375 164.054688 65.402344 164.28125 65.046875 164.734375 C 64.691406 165.183594 64.511719 165.789062 64.511719 166.535156 C 64.511719 167.222656 64.707031 167.835938 65.101562 168.382812 C 65.496094 168.929688 66.027344 169.199219 66.691406 169.199219 C 67.167969 169.199219 67.585938 169.050781 67.953125 168.742188 C 68.164062 168.5625 68.402344 168.28125 68.664062 167.890625 L 68.855469 168.007812 C 68.597656 168.554688 68.324219 168.988281 68.035156 169.304688 C 67.488281 169.914062 66.851562 170.21875 66.128906 170.21875 C 65.417969 170.21875 64.789062 169.941406 64.246094 169.378906 C 63.699219 168.820312 63.425781 168.0625 63.425781 167.105469 C 63.425781 166.164062 63.726562 165.351562 64.324219 164.675781 C 64.914062 163.996094 65.667969 163.660156 66.578125 163.660156 Z M 73.304688 166.308594 C 72.785156 166.484375 72.351562 166.675781 72.011719 166.886719 C 71.359375 167.292969 71.03125 167.746094 71.03125 168.261719 C 71.03125 168.675781 71.167969 168.980469 71.441406 169.175781 C 71.617188 169.300781 71.816406 169.363281 72.03125 169.363281 C 72.332031 169.363281 72.621094 169.28125 72.894531 169.113281 C 73.171875 168.949219 73.304688 168.734375 73.304688 168.472656 Z M 69.816406 168.734375 C 69.816406 168.074219 70.148438 167.523438 70.804688 167.082031 C 71.222656 166.808594 72.054688 166.4375 73.304688 165.972656 L 73.304688 165.390625 C 73.304688 164.925781 73.261719 164.605469 73.171875 164.425781 C 73.015625 164.121094 72.695312 163.964844 72.210938 163.964844 C 71.976562 163.964844 71.757812 164.027344 71.550781 164.144531 C 71.339844 164.269531 71.234375 164.4375 71.234375 164.652344 C 71.234375 164.707031 71.246094 164.796875 71.269531 164.921875 C 71.292969 165.054688 71.304688 165.136719 71.304688 165.171875 C 71.304688 165.429688 71.21875 165.605469 71.050781 165.707031 C 70.957031 165.765625 70.839844 165.796875 70.707031 165.796875 C 70.503906 165.796875 70.351562 165.726562 70.242188 165.59375 C 70.132812 165.460938 70.078125 165.308594 70.078125 165.144531 C 70.078125 164.832031 70.273438 164.496094 70.664062 164.148438 C 71.058594 163.800781 71.636719 163.625 72.394531 163.625 C 73.273438 163.625 73.871094 163.910156 74.1875 164.488281 C 74.355469 164.800781 74.441406 165.253906 74.441406 165.855469 L 74.441406 168.589844 C 74.441406 168.855469 74.457031 169.035156 74.496094 169.132812 C 74.554688 169.308594 74.671875 169.398438 74.859375 169.398438 C 74.964844 169.398438 75.050781 169.382812 75.121094 169.351562 C 75.1875 169.320312 75.308594 169.242188 75.476562 169.121094 L 75.476562 169.472656 C 75.328125 169.652344 75.171875 169.796875 75.003906 169.910156 C 74.75 170.085938 74.492188 170.171875 74.230469 170.171875 C 73.917969 170.171875 73.695312 170.070312 73.554688 169.871094 C 73.417969 169.671875 73.339844 169.429688 73.324219 169.152344 C 72.984375 169.453125 72.6875 169.675781 72.441406 169.824219 C 72.027344 170.070312 71.636719 170.191406 71.261719 170.191406 C 70.871094 170.191406 70.53125 170.054688 70.25 169.777344 C 69.960938 169.503906 69.816406 169.152344 69.816406 168.734375 Z M 79.054688 163.800781 L 79.054688 164.292969 L 77.664062 164.292969 L 77.648438 168.21875 C 77.648438 168.566406 77.679688 168.828125 77.738281 169.007812 C 77.847656 169.316406 78.0625 169.472656 78.378906 169.472656 C 78.542969 169.472656 78.6875 169.4375 78.808594 169.359375 C 78.925781 169.28125 79.0625 169.15625 79.21875 168.992188 L 79.394531 169.140625 L 79.246094 169.34375 C 79.007812 169.664062 78.761719 169.890625 78.496094 170.019531 C 78.230469 170.152344 77.976562 170.21875 77.730469 170.21875 C 77.195312 170.21875 76.832031 169.980469 76.640625 169.503906 C 76.535156 169.242188 76.484375 168.886719 76.484375 168.425781 L 76.484375 164.292969 L 75.742188 164.292969 C 75.71875 164.28125 75.703125 164.269531 75.691406 164.253906 C 75.679688 164.238281 75.675781 164.222656 75.675781 164.199219 C 75.675781 164.152344 75.683594 164.117188 75.707031 164.09375 C 75.726562 164.066406 75.792969 164.011719 75.902344 163.917969 C 76.210938 163.660156 76.4375 163.449219 76.578125 163.289062 C 76.714844 163.128906 77.042969 162.703125 77.554688 162.007812 C 77.613281 162.007812 77.648438 162.011719 77.660156 162.023438 C 77.671875 162.03125 77.675781 162.066406 77.675781 162.125 L 77.675781 163.800781 Z M 80.527344 161.289062 C 80.527344 161.09375 80.597656 160.921875 80.730469 160.78125 C 80.867188 160.640625 81.039062 160.574219 81.238281 160.574219 C 81.433594 160.574219 81.601562 160.640625 81.742188 160.777344 C 81.875 160.917969 81.945312 161.085938 81.945312 161.289062 C 81.945312 161.484375 81.875 161.652344 81.742188 161.789062 C 81.601562 161.929688 81.433594 161.996094 81.238281 161.996094 C 81.039062 161.996094 80.871094 161.929688 80.730469 161.789062 C 80.59375 161.652344 80.527344 161.484375 80.527344 161.289062 Z M 79.65625 169.898438 C 80.144531 169.851562 80.449219 169.769531 80.574219 169.648438 C 80.703125 169.527344 80.765625 169.199219 80.765625 168.671875 L 80.765625 165.417969 C 80.765625 165.121094 80.746094 164.917969 80.707031 164.808594 C 80.636719 164.621094 80.492188 164.527344 80.277344 164.527344 C 80.226562 164.527344 80.179688 164.53125 80.132812 164.542969 C 80.085938 164.550781 79.945312 164.585938 79.71875 164.652344 L 79.71875 164.4375 L 80.011719 164.34375 C 80.804688 164.082031 81.363281 163.886719 81.675781 163.753906 C 81.800781 163.699219 81.882812 163.671875 81.917969 163.671875 C 81.925781 163.703125 81.929688 163.738281 81.929688 163.777344 L 81.929688 168.671875 C 81.929688 169.1875 81.996094 169.511719 82.121094 169.644531 C 82.246094 169.777344 82.527344 169.863281 82.96875 169.898438 L 82.96875 170.089844 L 79.65625 170.089844 Z M 83.613281 166.925781 C 83.613281 166.023438 83.902344 165.257812 84.476562 164.632812 C 85.050781 164.007812 85.792969 163.691406 86.695312 163.691406 C 87.59375 163.691406 88.339844 163.988281 88.929688 164.582031 C 89.523438 165.171875 89.820312 165.960938 89.820312 166.941406 C 89.820312 167.84375 89.53125 168.632812 88.957031 169.296875 C 88.386719 169.964844 87.644531 170.300781 86.734375 170.300781 C 85.863281 170.300781 85.125 169.980469 84.523438 169.339844 C 83.917969 168.699219 83.613281 167.890625 83.613281 166.925781 Z M 86.503906 164.105469 C 86.144531 164.105469 85.835938 164.222656 85.570312 164.457031 C 85.113281 164.867188 84.886719 165.585938 84.886719 166.597656 C 84.886719 167.410156 85.070312 168.160156 85.4375 168.863281 C 85.804688 169.5625 86.308594 169.910156 86.960938 169.910156 C 87.46875 169.910156 87.863281 169.675781 88.136719 169.207031 C 88.414062 168.742188 88.550781 168.128906 88.550781 167.371094 C 88.550781 166.582031 88.375 165.84375 88.023438 165.144531 C 87.671875 164.453125 87.167969 164.105469 86.503906 164.105469 Z M 90.492188 169.898438 C 90.816406 169.855469 91.042969 169.777344 91.171875 169.65625 C 91.300781 169.535156 91.367188 169.265625 91.367188 168.851562 L 91.367188 165.390625 C 91.367188 165.101562 91.339844 164.894531 91.285156 164.78125 C 91.199219 164.605469 91.019531 164.519531 90.75 164.519531 C 90.710938 164.519531 90.667969 164.523438 90.625 164.527344 C 90.582031 164.53125 90.527344 164.539062 90.464844 164.546875 L 90.464844 164.308594 C 90.652344 164.253906 91.09375 164.113281 91.785156 163.886719 L 92.429688 163.671875 C 92.460938 163.671875 92.480469 163.683594 92.488281 163.707031 C 92.492188 163.730469 92.496094 163.761719 92.496094 163.800781 L 92.496094 164.808594 C 92.914062 164.417969 93.242188 164.148438 93.476562 164 C 93.832031 163.777344 94.203125 163.667969 94.582031 163.667969 C 94.890625 163.667969 95.171875 163.753906 95.429688 163.933594 C 95.921875 164.277344 96.164062 164.890625 96.164062 165.78125 L 96.164062 168.964844 C 96.164062 169.289062 96.230469 169.527344 96.363281 169.671875 C 96.496094 169.816406 96.714844 169.894531 97.023438 169.898438 L 97.023438 170.089844 L 94.113281 170.089844 L 94.113281 169.898438 C 94.445312 169.851562 94.675781 169.761719 94.804688 169.621094 C 94.9375 169.480469 95.003906 169.179688 95.003906 168.71875 L 95.003906 165.808594 C 95.003906 165.417969 94.933594 165.09375 94.785156 164.839844 C 94.640625 164.582031 94.375 164.453125 93.984375 164.453125 C 93.714844 164.453125 93.441406 164.542969 93.164062 164.726562 C 93.011719 164.832031 92.8125 165 92.566406 165.242188 L 92.566406 169.0625 C 92.566406 169.386719 92.636719 169.605469 92.785156 169.71875 C 92.929688 169.828125 93.15625 169.890625 93.472656 169.898438 L 93.472656 170.089844 L 90.492188 170.089844 Z M 101.222656 166.308594 C 100.699219 166.484375 100.265625 166.675781 99.929688 166.886719 C 99.273438 167.292969 98.945312 167.746094 98.945312 168.261719 C 98.945312 168.675781 99.082031 168.980469 99.355469 169.175781 C 99.53125 169.300781 99.730469 169.363281 99.949219 169.363281 C 100.25 169.363281 100.535156 169.28125 100.808594 169.113281 C 101.085938 168.949219 101.222656 168.734375 101.222656 168.472656 Z M 97.730469 168.734375 C 97.730469 168.074219 98.0625 167.523438 98.722656 167.082031 C 99.136719 166.808594 99.972656 166.4375 101.222656 165.972656 L 101.222656 165.390625 C 101.222656 164.925781 101.179688 164.605469 101.085938 164.425781 C 100.929688 164.121094 100.609375 163.964844 100.128906 163.964844 C 99.894531 163.964844 99.671875 164.027344 99.464844 164.144531 C 99.253906 164.269531 99.148438 164.4375 99.148438 164.652344 C 99.148438 164.707031 99.160156 164.796875 99.183594 164.921875 C 99.207031 165.054688 99.21875 165.136719 99.21875 165.171875 C 99.21875 165.429688 99.132812 165.605469 98.964844 165.707031 C 98.871094 165.765625 98.757812 165.796875 98.625 165.796875 C 98.421875 165.796875 98.265625 165.726562 98.15625 165.59375 C 98.046875 165.460938 97.992188 165.308594 97.992188 165.144531 C 97.992188 164.832031 98.1875 164.496094 98.582031 164.148438 C 98.972656 163.800781 99.550781 163.625 100.308594 163.625 C 101.191406 163.625 101.785156 163.910156 102.101562 164.488281 C 102.269531 164.800781 102.355469 165.253906 102.355469 165.855469 L 102.355469 168.589844 C 102.355469 168.855469 102.371094 169.035156 102.410156 169.132812 C 102.46875 169.308594 102.589844 169.398438 102.777344 169.398438 C 102.882812 169.398438 102.96875 169.382812 103.039062 169.351562 C 103.105469 169.320312 103.222656 169.242188 103.390625 169.121094 L 103.390625 169.472656 C 103.242188 169.652344 103.089844 169.796875 102.921875 169.910156 C 102.667969 170.085938 102.40625 170.171875 102.144531 170.171875 C 101.832031 170.171875 101.613281 170.070312 101.472656 169.871094 C 101.335938 169.671875 101.257812 169.429688 101.242188 169.152344 C 100.898438 169.453125 100.601562 169.675781 100.355469 169.824219 C 99.945312 170.070312 99.550781 170.191406 99.175781 170.191406 C 98.789062 170.191406 98.449219 170.054688 98.164062 169.777344 C 97.875 169.503906 97.730469 169.152344 97.730469 168.734375 Z M 103.707031 169.898438 C 104.128906 169.855469 104.417969 169.773438 104.5625 169.640625 C 104.710938 169.511719 104.789062 169.257812 104.789062 168.882812 L 104.789062 162.21875 C 104.789062 161.921875 104.761719 161.714844 104.710938 161.601562 C 104.621094 161.410156 104.441406 161.316406 104.164062 161.316406 C 104.097656 161.316406 104.03125 161.324219 103.953125 161.335938 C 103.878906 161.347656 103.785156 161.371094 103.671875 161.398438 L 103.671875 161.171875 C 104.285156 161.007812 105.023438 160.789062 105.890625 160.519531 C 105.921875 160.519531 105.941406 160.53125 105.945312 160.5625 C 105.949219 160.585938 105.953125 160.644531 105.953125 160.734375 L 105.953125 168.910156 C 105.953125 169.304688 106.019531 169.558594 106.160156 169.675781 C 106.296875 169.792969 106.578125 169.867188 107.003906 169.898438 L 107.003906 170.089844 L 103.707031 170.089844 Z M 116.257812 166.503906 L 114.640625 162.65625 L 113.046875 166.503906 Z M 110.226562 170.089844 L 110.226562 169.835938 C 110.585938 169.796875 110.859375 169.660156 111.039062 169.425781 C 111.21875 169.195312 111.527344 168.566406 111.960938 167.542969 L 114.871094 160.6875 L 115.144531 160.6875 L 118.625 168.601562 C 118.851562 169.128906 119.039062 169.457031 119.175781 169.582031 C 119.316406 169.707031 119.550781 169.792969 119.878906 169.835938 L 119.878906 170.089844 L 116.324219 170.089844 L 116.324219 169.835938 C 116.734375 169.800781 117 169.757812 117.117188 169.703125 C 117.234375 169.652344 117.296875 169.523438 117.296875 169.316406 C 117.296875 169.25 117.273438 169.128906 117.226562 168.960938 C 117.179688 168.785156 117.117188 168.601562 117.035156 168.414062 L 116.453125 167.070312 L 112.800781 167.070312 C 112.4375 167.980469 112.21875 168.539062 112.148438 168.742188 C 112.078125 168.945312 112.042969 169.105469 112.042969 169.222656 C 112.042969 169.457031 112.136719 169.621094 112.332031 169.714844 C 112.449219 169.769531 112.671875 169.808594 113 169.835938 L 113 170.089844 Z M 123.660156 163.800781 L 123.660156 164.292969 L 122.269531 164.292969 L 122.253906 168.21875 C 122.253906 168.566406 122.285156 168.828125 122.34375 169.007812 C 122.453125 169.316406 122.667969 169.472656 122.984375 169.472656 C 123.144531 169.472656 123.289062 169.4375 123.410156 169.359375 C 123.53125 169.28125 123.667969 169.15625 123.824219 168.992188 L 124 169.140625 L 123.851562 169.34375 C 123.613281 169.664062 123.363281 169.890625 123.097656 170.019531 C 122.835938 170.152344 122.582031 170.21875 122.335938 170.21875 C 121.796875 170.21875 121.4375 169.980469 121.246094 169.503906 C 121.140625 169.242188 121.089844 168.886719 121.089844 168.425781 L 121.089844 164.292969 L 120.34375 164.292969 C 120.320312 164.28125 120.304688 164.269531 120.292969 164.253906 C 120.28125 164.238281 120.277344 164.222656 120.277344 164.199219 C 120.277344 164.152344 120.285156 164.117188 120.308594 164.09375 C 120.328125 164.066406 120.394531 164.011719 120.503906 163.917969 C 120.816406 163.660156 121.042969 163.449219 121.183594 163.289062 C 121.320312 163.128906 121.644531 162.703125 122.160156 162.007812 C 122.21875 162.007812 122.253906 162.011719 122.265625 162.023438 C 122.277344 162.03125 122.28125 162.066406 122.28125 162.125 L 122.28125 163.800781 Z M 127.539062 163.800781 L 127.539062 164.292969 L 126.148438 164.292969 L 126.132812 168.21875 C 126.132812 168.566406 126.164062 168.828125 126.222656 169.007812 C 126.332031 169.316406 126.546875 169.472656 126.863281 169.472656 C 127.027344 169.472656 127.171875 169.4375 127.289062 169.359375 C 127.410156 169.28125 127.546875 169.15625 127.703125 168.992188 L 127.878906 169.140625 L 127.730469 169.34375 C 127.492188 169.664062 127.246094 169.890625 126.980469 170.019531 C 126.714844 170.152344 126.460938 170.21875 126.214844 170.21875 C 125.679688 170.21875 125.316406 169.980469 125.125 169.503906 C 125.019531 169.242188 124.96875 168.886719 124.96875 168.425781 L 124.96875 164.292969 L 124.226562 164.292969 C 124.203125 164.28125 124.1875 164.269531 124.175781 164.253906 C 124.164062 164.238281 124.160156 164.222656 124.160156 164.199219 C 124.160156 164.152344 124.167969 164.117188 124.191406 164.09375 C 124.210938 164.066406 124.277344 164.011719 124.386719 163.917969 C 124.695312 163.660156 124.921875 163.449219 125.0625 163.289062 C 125.199219 163.128906 125.527344 162.703125 126.039062 162.007812 C 126.097656 162.007812 126.132812 162.011719 126.144531 162.023438 C 126.15625 162.03125 126.160156 162.066406 126.160156 162.125 L 126.160156 163.800781 Z M 131.867188 166.308594 C 131.347656 166.484375 130.914062 166.675781 130.574219 166.886719 C 129.921875 167.292969 129.59375 167.746094 129.59375 168.261719 C 129.59375 168.675781 129.730469 168.980469 130.003906 169.175781 C 130.175781 169.300781 130.375 169.363281 130.59375 169.363281 C 130.894531 169.363281 131.183594 169.28125 131.457031 169.113281 C 131.730469 168.949219 131.867188 168.734375 131.867188 168.472656 Z M 128.378906 168.734375 C 128.378906 168.074219 128.707031 167.523438 129.367188 167.082031 C 129.785156 166.808594 130.617188 166.4375 131.867188 165.972656 L 131.867188 165.390625 C 131.867188 164.925781 131.824219 164.605469 131.730469 164.425781 C 131.574219 164.121094 131.257812 163.964844 130.773438 163.964844 C 130.539062 163.964844 130.316406 164.027344 130.113281 164.144531 C 129.902344 164.269531 129.796875 164.4375 129.796875 164.652344 C 129.796875 164.707031 129.808594 164.796875 129.832031 164.921875 C 129.855469 165.054688 129.867188 165.136719 129.867188 165.171875 C 129.867188 165.429688 129.78125 165.605469 129.613281 165.707031 C 129.519531 165.765625 129.402344 165.796875 129.269531 165.796875 C 129.066406 165.796875 128.910156 165.726562 128.800781 165.59375 C 128.695312 165.460938 128.640625 165.308594 128.640625 165.144531 C 128.640625 164.832031 128.832031 164.496094 129.226562 164.148438 C 129.621094 163.800781 130.195312 163.625 130.957031 163.625 C 131.835938 163.625 132.433594 163.910156 132.75 164.488281 C 132.917969 164.800781 133 165.253906 133 165.855469 L 133 168.589844 C 133 168.855469 133.015625 169.035156 133.054688 169.132812 C 133.113281 169.308594 133.234375 169.398438 133.421875 169.398438 C 133.527344 169.398438 133.613281 169.382812 133.683594 169.351562 C 133.75 169.320312 133.871094 169.242188 134.039062 169.121094 L 134.039062 169.472656 C 133.890625 169.652344 133.734375 169.796875 133.566406 169.910156 C 133.3125 170.085938 133.050781 170.171875 132.792969 170.171875 C 132.480469 170.171875 132.257812 170.070312 132.117188 169.871094 C 131.980469 169.671875 131.902344 169.429688 131.886719 169.152344 C 131.546875 169.453125 131.25 169.675781 131.003906 169.824219 C 130.589844 170.070312 130.195312 170.191406 129.824219 170.191406 C 129.433594 170.191406 129.09375 170.054688 128.808594 169.777344 C 128.523438 169.503906 128.378906 169.152344 128.378906 168.734375 Z M 135.207031 161.289062 C 135.207031 161.09375 135.277344 160.921875 135.410156 160.78125 C 135.546875 160.640625 135.71875 160.574219 135.914062 160.574219 C 136.109375 160.574219 136.277344 160.640625 136.417969 160.777344 C 136.554688 160.917969 136.625 161.085938 136.625 161.289062 C 136.625 161.484375 136.554688 161.652344 136.417969 161.789062 C 136.277344 161.929688 136.109375 161.996094 135.914062 161.996094 C 135.71875 161.996094 135.550781 161.929688 135.410156 161.789062 C 135.273438 161.652344 135.207031 161.484375 135.207031 161.289062 Z M 134.335938 169.898438 C 134.820312 169.851562 135.128906 169.769531 135.253906 169.648438 C 135.382812 169.527344 135.445312 169.199219 135.445312 168.671875 L 135.445312 165.417969 C 135.445312 165.121094 135.425781 164.917969 135.386719 164.808594 C 135.316406 164.621094 135.171875 164.527344 134.953125 164.527344 C 134.902344 164.527344 134.855469 164.53125 134.808594 164.542969 C 134.761719 164.550781 134.621094 164.585938 134.394531 164.652344 L 134.394531 164.4375 L 134.6875 164.34375 C 135.484375 164.082031 136.039062 163.886719 136.351562 163.753906 C 136.480469 163.699219 136.5625 163.671875 136.597656 163.671875 C 136.605469 163.703125 136.609375 163.738281 136.609375 163.777344 L 136.609375 168.671875 C 136.609375 169.1875 136.675781 169.511719 136.800781 169.644531 C 136.925781 169.777344 137.207031 169.863281 137.644531 169.898438 L 137.644531 170.089844 L 134.335938 170.089844 Z M 138.195312 169.898438 C 138.519531 169.855469 138.742188 169.777344 138.871094 169.65625 C 139 169.535156 139.066406 169.265625 139.066406 168.851562 L 139.066406 165.390625 C 139.066406 165.101562 139.039062 164.894531 138.984375 164.78125 C 138.898438 164.605469 138.71875 164.519531 138.453125 164.519531 C 138.414062 164.519531 138.371094 164.523438 138.328125 164.527344 C 138.285156 164.53125 138.230469 164.539062 138.167969 164.546875 L 138.167969 164.308594 C 138.355469 164.253906 138.792969 164.113281 139.488281 163.886719 L 140.128906 163.671875 C 140.160156 163.671875 140.179688 163.683594 140.1875 163.707031 C 140.191406 163.730469 140.195312 163.761719 140.195312 163.800781 L 140.195312 164.808594 C 140.613281 164.417969 140.945312 164.148438 141.179688 164 C 141.53125 163.777344 141.902344 163.667969 142.285156 163.667969 C 142.59375 163.667969 142.875 163.753906 143.128906 163.933594 C 143.621094 164.277344 143.867188 164.890625 143.867188 165.78125 L 143.867188 168.964844 C 143.867188 169.289062 143.933594 169.527344 144.066406 169.671875 C 144.199219 169.816406 144.414062 169.894531 144.722656 169.898438 L 144.722656 170.089844 L 141.8125 170.089844 L 141.8125 169.898438 C 142.144531 169.851562 142.378906 169.761719 142.507812 169.621094 C 142.640625 169.480469 142.707031 169.179688 142.707031 168.71875 L 142.707031 165.808594 C 142.707031 165.417969 142.636719 165.09375 142.488281 164.839844 C 142.34375 164.582031 142.074219 164.453125 141.683594 164.453125 C 141.417969 164.453125 141.144531 164.542969 140.867188 164.726562 C 140.710938 164.832031 140.511719 165 140.265625 165.242188 L 140.265625 169.0625 C 140.265625 169.386719 140.335938 169.605469 140.484375 169.71875 C 140.628906 169.828125 140.859375 169.890625 141.175781 169.898438 L 141.175781 170.089844 L 138.195312 170.089844 Z M 145.148438 169.910156 C 145.503906 169.878906 145.738281 169.820312 145.855469 169.734375 C 146.035156 169.601562 146.128906 169.339844 146.128906 168.945312 L 146.128906 165.417969 C 146.128906 165.082031 146.082031 164.859375 145.996094 164.761719 C 145.90625 164.65625 145.761719 164.601562 145.558594 164.601562 C 145.460938 164.601562 145.390625 164.605469 145.34375 164.617188 C 145.296875 164.625 145.238281 164.640625 145.175781 164.664062 L 145.175781 164.425781 L 145.667969 164.261719 C 145.839844 164.203125 146.132812 164.09375 146.539062 163.941406 C 146.945312 163.785156 147.15625 163.707031 147.179688 163.707031 C 147.199219 163.707031 147.214844 163.71875 147.21875 163.742188 C 147.222656 163.765625 147.226562 163.808594 147.226562 163.871094 L 147.226562 164.792969 C 147.675781 164.382812 148.066406 164.101562 148.394531 163.941406 C 148.71875 163.785156 149.054688 163.707031 149.402344 163.707031 C 149.871094 163.707031 150.242188 163.867188 150.519531 164.183594 C 150.664062 164.359375 150.785156 164.59375 150.882812 164.886719 C 151.21875 164.546875 151.507812 164.292969 151.757812 164.128906 C 152.191406 163.847656 152.632812 163.707031 153.082031 163.707031 C 153.816406 163.707031 154.300781 164.003906 154.546875 164.601562 C 154.6875 164.9375 154.757812 165.46875 154.757812 166.199219 L 154.757812 169.027344 C 154.757812 169.347656 154.832031 169.566406 154.972656 169.683594 C 155.117188 169.800781 155.375 169.875 155.746094 169.910156 L 155.746094 170.089844 L 152.675781 170.089844 L 152.675781 169.898438 C 153.066406 169.863281 153.328125 169.78125 153.453125 169.660156 C 153.578125 169.535156 153.640625 169.285156 153.640625 168.910156 L 153.640625 165.972656 C 153.640625 165.53125 153.59375 165.203125 153.5 164.996094 C 153.328125 164.625 153 164.4375 152.511719 164.4375 C 152.214844 164.4375 151.921875 164.535156 151.628906 164.730469 C 151.460938 164.84375 151.257812 165.023438 151.011719 165.273438 L 151.011719 168.765625 C 151.011719 169.132812 151.074219 169.414062 151.207031 169.605469 C 151.335938 169.796875 151.605469 169.898438 152.027344 169.910156 L 152.027344 170.089844 L 148.894531 170.089844 L 148.894531 169.910156 C 149.328125 169.855469 149.605469 169.753906 149.722656 169.597656 C 149.839844 169.441406 149.902344 169.066406 149.902344 168.460938 L 149.902344 166.550781 C 149.902344 165.851562 149.855469 165.367188 149.761719 165.105469 C 149.613281 164.660156 149.292969 164.4375 148.808594 164.4375 C 148.53125 164.4375 148.257812 164.515625 147.992188 164.667969 C 147.722656 164.820312 147.484375 165.015625 147.28125 165.261719 L 147.28125 168.992188 C 147.28125 169.335938 147.339844 169.574219 147.460938 169.707031 C 147.582031 169.839844 147.84375 169.90625 148.25 169.910156 L 148.25 170.089844 L 145.148438 170.089844 Z M 158.980469 163.691406 C 159.621094 163.691406 160.179688 163.914062 160.664062 164.359375 C 161.148438 164.804688 161.386719 165.429688 161.386719 166.246094 L 157.058594 166.246094 C 157.105469 167.300781 157.339844 168.066406 157.773438 168.546875 C 158.207031 169.03125 158.714844 169.269531 159.308594 169.269531 C 159.785156 169.269531 160.183594 169.144531 160.511719 168.898438 C 160.839844 168.648438 161.144531 168.292969 161.417969 167.832031 L 161.65625 167.914062 C 161.46875 168.492188 161.125 169.027344 160.613281 169.515625 C 160.101562 170.007812 159.476562 170.253906 158.734375 170.253906 C 157.878906 170.253906 157.21875 169.929688 156.753906 169.285156 C 156.289062 168.640625 156.054688 167.894531 156.054688 167.054688 C 156.054688 166.144531 156.324219 165.351562 156.867188 164.691406 C 157.40625 164.027344 158.113281 163.691406 158.980469 163.691406 Z M 158.582031 164.191406 C 158.066406 164.191406 157.671875 164.421875 157.398438 164.878906 C 157.253906 165.125 157.148438 165.433594 157.085938 165.808594 L 159.964844 165.808594 C 159.914062 165.351562 159.828125 165.011719 159.703125 164.792969 C 159.480469 164.394531 159.105469 164.191406 158.582031 164.191406 Z M 162.230469 169.898438 C 162.554688 169.855469 162.78125 169.777344 162.90625 169.65625 C 163.035156 169.535156 163.101562 169.265625 163.101562 168.851562 L 163.101562 165.390625 C 163.101562 165.101562 163.074219 164.894531 163.019531 164.78125 C 162.933594 164.605469 162.757812 164.519531 162.488281 164.519531 C 162.449219 164.519531 162.40625 164.523438 162.363281 164.527344 C 162.320312 164.53125 162.265625 164.539062 162.203125 164.546875 L 162.203125 164.308594 C 162.390625 164.253906 162.832031 164.113281 163.523438 163.886719 L 164.167969 163.671875 C 164.199219 163.671875 164.21875 163.683594 164.226562 163.707031 C 164.230469 163.730469 164.234375 163.761719 164.234375 163.800781 L 164.234375 164.808594 C 164.648438 164.417969 164.980469 164.148438 165.214844 164 C 165.570312 163.777344 165.9375 163.667969 166.320312 163.667969 C 166.628906 163.667969 166.910156 163.753906 167.164062 163.933594 C 167.65625 164.277344 167.902344 164.890625 167.902344 165.78125 L 167.902344 168.964844 C 167.902344 169.289062 167.96875 169.527344 168.101562 169.671875 C 168.234375 169.816406 168.453125 169.894531 168.757812 169.898438 L 168.757812 170.089844 L 165.847656 170.089844 L 165.847656 169.898438 C 166.179688 169.851562 166.414062 169.761719 166.542969 169.621094 C 166.675781 169.480469 166.742188 169.179688 166.742188 168.71875 L 166.742188 165.808594 C 166.742188 165.417969 166.671875 165.09375 166.523438 164.839844 C 166.378906 164.582031 166.109375 164.453125 165.71875 164.453125 C 165.453125 164.453125 165.179688 164.542969 164.902344 164.726562 C 164.746094 164.832031 164.546875 165 164.300781 165.242188 L 164.300781 169.0625 C 164.300781 169.386719 164.371094 169.605469 164.519531 169.71875 C 164.664062 169.828125 164.894531 169.890625 165.210938 169.898438 L 165.210938 170.089844 L 162.230469 170.089844 Z M 172.511719 163.800781 L 172.511719 164.292969 L 171.121094 164.292969 L 171.105469 168.21875 C 171.105469 168.566406 171.136719 168.828125 171.195312 169.007812 C 171.304688 169.316406 171.515625 169.472656 171.832031 169.472656 C 171.996094 169.472656 172.140625 169.4375 172.261719 169.359375 C 172.382812 169.28125 172.519531 169.15625 172.675781 168.992188 L 172.847656 169.140625 L 172.703125 169.34375 C 172.464844 169.664062 172.214844 169.890625 171.949219 170.019531 C 171.683594 170.152344 171.429688 170.21875 171.1875 170.21875 C 170.648438 170.21875 170.285156 169.980469 170.09375 169.503906 C 169.988281 169.242188 169.941406 168.886719 169.941406 168.425781 L 169.941406 164.292969 L 169.195312 164.292969 C 169.171875 164.28125 169.15625 164.269531 169.144531 164.253906 C 169.132812 164.238281 169.128906 164.222656 169.128906 164.199219 C 169.128906 164.152344 169.136719 164.117188 169.160156 164.09375 C 169.179688 164.066406 169.246094 164.011719 169.355469 163.917969 C 169.667969 163.660156 169.894531 163.449219 170.03125 163.289062 C 170.167969 163.128906 170.496094 162.703125 171.011719 162.007812 C 171.070312 162.007812 171.105469 162.011719 171.117188 162.023438 C 171.128906 162.03125 171.132812 162.066406 171.132812 162.125 L 171.132812 163.800781 Z M 40.617188 159.617188 "/>
<path fill="none" stroke-width="1" stroke-linecap="butt" stroke-linejoin="miter" stroke="rgb(0%, 0%, 0%)" stroke-opacity="1" stroke-miterlimit="4" d="M 103.023634 -143.830091 C 103.023634 -136.129309 103.023634 -126.975328 103.023634 -118.416727 " transform="matrix(0.997261, 0, 0, 0.997261, 3.989043, 255.654854)"/>
<path fill-rule="nonzero" fill="rgb(0%, 0%, 0%)" fill-opacity="1" stroke-width="1" stroke-linecap="butt" stroke-linejoin="miter" stroke="rgb(0%, 0%, 0%)" stroke-opacity="1" stroke-miterlimit="4" d="M 106.525413 -118.412811 L 103.023634 -108.412762 L 99.521854 -118.412811 Z M 106.525413 -118.412811 " transform="matrix(0.997261, 0, 0, 0.997261, 3.989043, 255.654854)"/>
<path fill="none" stroke-width="1" stroke-linecap="butt" stroke-linejoin="miter" stroke="rgb(0%, 0%, 0%)" stroke-opacity="1" stroke-miterlimit="4" d="M 225.76219 -233.998962 C 225.76219 -224.057667 200.35666 -216.00044 169.02474 -216.00044 C 137.688903 -216.00044 112.28729 -224.057667 112.28729 -233.998962 C 112.28729 -243.940256 137.688903 -252.0014 169.02474 -252.0014 C 200.35666 -252.0014 225.76219 -243.940256 225.76219 -233.998962 Z M 225.76219 -233.998962 " transform="matrix(0.997261, 0, 0, 0.997261, 3.989043, 255.654854)"/>
<path fill-rule="nonzero" fill="rgb(0%, 0%, 0%)" fill-opacity="1" d="M 139.828125 26.230469 C 140.394531 26.191406 140.761719 26.105469 140.929688 25.976562 C 141.097656 25.84375 141.183594 25.507812 141.183594 24.972656 L 141.183594 18.757812 C 141.183594 18.246094 141.097656 17.917969 140.929688 17.769531 C 140.761719 17.621094 140.394531 17.53125 139.828125 17.503906 L 139.828125 17.246094 L 143.957031 17.246094 L 143.957031 17.503906 C 143.386719 17.53125 143.019531 17.621094 142.855469 17.769531 C 142.6875 17.917969 142.601562 18.246094 142.601562 18.757812 L 142.601562 24.972656 C 142.601562 25.507812 142.6875 25.84375 142.855469 25.976562 C 143.019531 26.105469 143.386719 26.191406 143.957031 26.230469 L 143.957031 26.484375 L 139.828125 26.484375 Z M 144.503906 26.292969 C 144.828125 26.25 145.054688 26.171875 145.183594 26.050781 C 145.3125 25.929688 145.378906 25.660156 145.378906 25.246094 L 145.378906 21.785156 C 145.378906 21.496094 145.351562 21.289062 145.296875 21.175781 C 145.210938 21 145.03125 20.914062 144.761719 20.914062 C 144.722656 20.914062 144.679688 20.917969 144.636719 20.921875 C 144.59375 20.925781 144.539062 20.933594 144.476562 20.941406 L 144.476562 20.703125 C 144.664062 20.648438 145.105469 20.507812 145.796875 20.28125 L 146.441406 20.066406 C 146.472656 20.066406 146.492188 20.078125 146.5 20.101562 C 146.503906 20.125 146.507812 20.15625 146.507812 20.195312 L 146.507812 21.203125 C 146.925781 20.8125 147.253906 20.542969 147.488281 20.394531 C 147.84375 20.171875 148.214844 20.0625 148.597656 20.0625 C 148.902344 20.0625 149.183594 20.148438 149.441406 20.328125 C 149.933594 20.671875 150.175781 21.285156 150.175781 22.175781 L 150.175781 25.359375 C 150.175781 25.683594 150.242188 25.921875 150.375 26.066406 C 150.507812 26.210938 150.726562 26.289062 151.035156 26.292969 L 151.035156 26.484375 L 148.125 26.484375 L 148.125 26.292969 C 148.457031 26.246094 148.6875 26.15625 148.816406 26.015625 C 148.949219 25.875 149.015625 25.574219 149.015625 25.113281 L 149.015625 22.203125 C 149.015625 21.8125 148.945312 21.488281 148.796875 21.230469 C 148.652344 20.976562 148.386719 20.847656 147.996094 20.847656 C 147.726562 20.847656 147.453125 20.9375 147.179688 21.121094 C 147.023438 21.222656 146.824219 21.394531 146.578125 21.636719 L 146.578125 25.457031 C 146.578125 25.78125 146.648438 26 146.796875 26.113281 C 146.941406 26.222656 147.171875 26.285156 147.484375 26.292969 L 147.484375 26.484375 L 144.503906 26.484375 Z M 154.785156 20.195312 L 154.785156 20.6875 L 153.394531 20.6875 L 153.378906 24.613281 C 153.378906 24.960938 153.410156 25.222656 153.46875 25.402344 C 153.578125 25.710938 153.792969 25.867188 154.109375 25.867188 C 154.273438 25.867188 154.414062 25.832031 154.535156 25.753906 C 154.65625 25.675781 154.792969 25.550781 154.949219 25.386719 L 155.125 25.535156 L 154.976562 25.738281 C 154.738281 26.058594 154.488281 26.285156 154.226562 26.414062 C 153.960938 26.546875 153.707031 26.613281 153.460938 26.613281 C 152.921875 26.613281 152.5625 26.375 152.371094 25.898438 C 152.265625 25.636719 152.214844 25.28125 152.214844 24.820312 L 152.214844 20.6875 L 151.46875 20.6875 C 151.449219 20.675781 151.433594 20.664062 151.421875 20.648438 C 151.410156 20.632812 151.40625 20.617188 151.40625 20.59375 C 151.40625 20.546875 151.414062 20.511719 151.4375 20.488281 C 151.457031 20.460938 151.519531 20.40625 151.628906 20.3125 C 151.941406 20.054688 152.167969 19.84375 152.308594 19.683594 C 152.445312 19.523438 152.773438 19.097656 153.285156 18.402344 C 153.34375 18.402344 153.378906 18.40625 153.390625 18.417969 C 153.402344 18.425781 153.40625 18.460938 153.40625 18.519531 L 153.40625 20.195312 Z M 158.308594 20.085938 C 158.945312 20.085938 159.507812 20.308594 159.988281 20.753906 C 160.472656 21.199219 160.710938 21.824219 160.710938 22.636719 L 156.382812 22.636719 C 156.429688 23.695312 156.667969 24.460938 157.101562 24.941406 C 157.53125 25.425781 158.042969 25.664062 158.632812 25.664062 C 159.109375 25.664062 159.511719 25.539062 159.839844 25.292969 C 160.164062 25.042969 160.46875 24.6875 160.746094 24.226562 L 160.984375 24.308594 C 160.796875 24.886719 160.449219 25.421875 159.941406 25.910156 C 159.429688 26.402344 158.800781 26.648438 158.0625 26.648438 C 157.203125 26.648438 156.546875 26.324219 156.078125 25.679688 C 155.617188 25.035156 155.382812 24.289062 155.382812 23.449219 C 155.382812 22.539062 155.652344 21.746094 156.191406 21.085938 C 156.734375 20.421875 157.4375 20.085938 158.308594 20.085938 Z M 157.910156 20.585938 C 157.390625 20.585938 157 20.816406 156.726562 21.273438 C 156.582031 21.519531 156.476562 21.828125 156.410156 22.203125 L 159.289062 22.203125 C 159.238281 21.746094 159.152344 21.40625 159.027344 21.1875 C 158.804688 20.789062 158.433594 20.585938 157.910156 20.585938 Z M 161.59375 26.292969 C 162.015625 26.25 162.304688 26.167969 162.453125 26.035156 C 162.601562 25.90625 162.679688 25.652344 162.679688 25.277344 L 162.679688 18.613281 C 162.679688 18.316406 162.652344 18.109375 162.601562 17.996094 C 162.511719 17.804688 162.328125 17.710938 162.050781 17.710938 C 161.984375 17.710938 161.917969 17.71875 161.839844 17.730469 C 161.765625 17.742188 161.671875 17.765625 161.558594 17.792969 L 161.558594 17.566406 C 162.171875 17.402344 162.910156 17.183594 163.777344 16.914062 C 163.808594 16.914062 163.828125 16.925781 163.832031 16.953125 C 163.839844 16.980469 163.84375 17.039062 163.84375 17.128906 L 163.84375 25.304688 C 163.84375 25.699219 163.910156 25.953125 164.050781 26.070312 C 164.1875 26.1875 164.464844 26.261719 164.890625 26.292969 L 164.890625 26.484375 L 161.59375 26.484375 Z M 165.476562 26.292969 C 165.894531 26.25 166.183594 26.167969 166.332031 26.035156 C 166.480469 25.90625 166.558594 25.652344 166.558594 25.277344 L 166.558594 18.613281 C 166.558594 18.316406 166.53125 18.109375 166.480469 17.996094 C 166.390625 17.804688 166.207031 17.710938 165.929688 17.710938 C 165.863281 17.710938 165.796875 17.71875 165.71875 17.730469 C 165.648438 17.742188 165.554688 17.765625 165.441406 17.792969 L 165.441406 17.566406 C 166.050781 17.402344 166.792969 17.183594 167.65625 16.914062 C 167.6875 16.914062 167.707031 16.925781 167.710938 16.953125 C 167.71875 16.980469 167.722656 17.039062 167.722656 17.128906 L 167.722656 25.304688 C 167.722656 25.699219 167.789062 25.953125 167.929688 26.070312 C 168.066406 26.1875 168.347656 26.261719 168.769531 26.292969 L 168.769531 26.484375 L 165.476562 26.484375 Z M 170.210938 17.683594 C 170.210938 17.488281 170.28125 17.316406 170.414062 17.175781 C 170.550781 17.035156 170.722656 16.964844 170.921875 16.964844 C 171.117188 16.964844 171.285156 17.035156 171.421875 17.171875 C 171.558594 17.3125 171.628906 17.480469 171.628906 17.683594 C 171.628906 17.878906 171.558594 18.046875 171.421875 18.183594 C 171.285156 18.324219 171.117188 18.390625 170.921875 18.390625 C 170.722656 18.390625 170.554688 18.324219 170.414062 18.183594 C 170.277344 18.046875 170.210938 17.878906 170.210938 17.683594 Z M 169.339844 26.292969 C 169.828125 26.246094 170.132812 26.164062 170.257812 26.042969 C 170.386719 25.921875 170.449219 25.59375 170.449219 25.066406 L 170.449219 21.8125 C 170.449219 21.515625 170.429688 21.3125 170.390625 21.203125 C 170.320312 21.015625 170.175781 20.921875 169.957031 20.921875 C 169.910156 20.921875 169.863281 20.925781 169.816406 20.9375 C 169.769531 20.945312 169.628906 20.980469 169.402344 21.046875 L 169.402344 20.832031 L 169.695312 20.738281 C 170.488281 20.476562 171.046875 20.28125 171.359375 20.148438 C 171.484375 20.09375 171.566406 20.066406 171.601562 20.066406 C 171.609375 20.097656 171.613281 20.132812 171.613281 20.171875 L 171.613281 25.066406 C 171.613281 25.582031 171.679688 25.90625 171.804688 26.039062 C 171.929688 26.171875 172.210938 26.257812 172.652344 26.292969 L 172.652344 26.484375 L 169.339844 26.484375 Z M 174.3125 27.746094 C 174.3125 28.128906 174.527344 28.386719 174.957031 28.535156 C 175.386719 28.679688 175.878906 28.753906 176.433594 28.753906 C 177.1875 28.753906 177.800781 28.621094 178.273438 28.359375 C 178.746094 28.101562 178.980469 27.777344 178.980469 27.394531 C 178.980469 27.089844 178.792969 26.890625 178.414062 26.792969 C 178.175781 26.734375 177.726562 26.699219 177.066406 26.6875 C 176.902344 26.683594 176.722656 26.679688 176.535156 26.671875 C 176.347656 26.664062 176.179688 26.65625 176.023438 26.648438 C 175.921875 26.644531 175.761719 26.625 175.542969 26.59375 C 175.320312 26.5625 175.152344 26.535156 175.042969 26.511719 C 174.988281 26.511719 174.855469 26.65625 174.640625 26.9375 C 174.421875 27.230469 174.3125 27.5 174.3125 27.746094 Z M 175.199219 24.191406 C 174.785156 24.054688 174.464844 23.816406 174.234375 23.464844 C 174.007812 23.113281 173.890625 22.71875 173.890625 22.285156 C 173.890625 21.753906 174.105469 21.246094 174.523438 20.773438 C 174.945312 20.292969 175.546875 20.054688 176.316406 20.054688 C 176.648438 20.054688 177.015625 20.132812 177.414062 20.289062 C 177.816406 20.445312 178.199219 20.523438 178.566406 20.523438 C 178.660156 20.523438 178.804688 20.523438 179 20.515625 C 179.191406 20.507812 179.332031 20.503906 179.417969 20.503906 L 179.503906 20.503906 L 179.503906 21.058594 L 178.324219 21.058594 C 178.40625 21.246094 178.46875 21.414062 178.511719 21.554688 C 178.589844 21.816406 178.628906 22.070312 178.628906 22.304688 C 178.628906 22.820312 178.414062 23.296875 177.984375 23.734375 C 177.554688 24.164062 176.976562 24.382812 176.25 24.382812 C 176.136719 24.382812 175.929688 24.363281 175.632812 24.320312 C 175.503906 24.320312 175.332031 24.433594 175.113281 24.65625 C 174.898438 24.878906 174.789062 25.0625 174.789062 25.203125 C 174.789062 25.347656 174.949219 25.457031 175.269531 25.519531 C 175.476562 25.566406 175.707031 25.589844 175.960938 25.589844 C 177.128906 25.589844 177.925781 25.65625 178.34375 25.789062 C 179.027344 26 179.371094 26.460938 179.371094 27.164062 C 179.371094 27.882812 178.96875 28.453125 178.167969 28.882812 C 177.363281 29.3125 176.558594 29.523438 175.738281 29.523438 C 174.992188 29.523438 174.398438 29.375 173.964844 29.070312 C 173.527344 28.765625 173.308594 28.449219 173.308594 28.121094 C 173.308594 27.957031 173.367188 27.796875 173.484375 27.640625 C 173.601562 27.480469 173.832031 27.25 174.171875 26.9375 L 174.617188 26.539062 L 174.703125 26.457031 C 174.492188 26.375 174.335938 26.296875 174.230469 26.21875 C 174.050781 26.078125 173.960938 25.914062 173.960938 25.734375 C 173.960938 25.5625 174.039062 25.382812 174.195312 25.179688 C 174.347656 24.976562 174.683594 24.648438 175.199219 24.191406 Z M 176.496094 24.054688 C 176.746094 24.054688 176.957031 23.992188 177.121094 23.851562 C 177.394531 23.632812 177.53125 23.253906 177.53125 22.710938 C 177.53125 22.28125 177.417969 21.796875 177.199219 21.253906 C 176.980469 20.714844 176.613281 20.445312 176.097656 20.445312 C 175.652344 20.445312 175.347656 20.65625 175.179688 21.078125 C 175.09375 21.296875 175.050781 21.574219 175.050781 21.902344 C 175.050781 22.457031 175.183594 22.953125 175.453125 23.394531 C 175.71875 23.835938 176.066406 24.054688 176.496094 24.054688 Z M 183.121094 20.085938 C 183.761719 20.085938 184.320312 20.308594 184.804688 20.753906 C 185.289062 21.199219 185.527344 21.824219 185.527344 22.636719 L 181.199219 22.636719 C 181.246094 23.695312 181.480469 24.460938 181.914062 24.941406 C 182.347656 25.425781 182.855469 25.664062 183.449219 25.664062 C 183.925781 25.664062 184.324219 25.539062 184.652344 25.292969 C 184.980469 25.042969 185.285156 24.6875 185.5625 24.226562 L 185.796875 24.308594 C 185.609375 24.886719 185.265625 25.421875 184.753906 25.910156 C 184.242188 26.402344 183.617188 26.648438 182.875 26.648438 C 182.019531 26.648438 181.359375 26.324219 180.894531 25.679688 C 180.429688 25.035156 180.195312 24.289062 180.195312 23.449219 C 180.195312 22.539062 180.464844 21.746094 181.007812 21.085938 C 181.546875 20.421875 182.253906 20.085938 183.121094 20.085938 Z M 182.726562 20.585938 C 182.207031 20.585938 181.8125 20.816406 181.539062 21.273438 C 181.394531 21.519531 181.292969 21.828125 181.226562 22.203125 L 184.105469 22.203125 C 184.054688 21.746094 183.96875 21.40625 183.84375 21.1875 C 183.621094 20.789062 183.246094 20.585938 182.726562 20.585938 Z M 186.375 26.292969 C 186.699219 26.25 186.925781 26.171875 187.050781 26.050781 C 187.179688 25.929688 187.246094 25.660156 187.246094 25.246094 L 187.246094 21.785156 C 187.246094 21.496094 187.21875 21.289062 187.164062 21.175781 C 187.078125 21 186.902344 20.914062 186.632812 20.914062 C 186.59375 20.914062 186.550781 20.917969 186.507812 20.921875 C 186.464844 20.925781 186.410156 20.933594 186.347656 20.941406 L 186.347656 20.703125 C 186.535156 20.648438 186.976562 20.507812 187.667969 20.28125 L 188.3125 20.066406 C 188.34375 20.066406 188.363281 20.078125 188.371094 20.101562 C 188.375 20.125 188.378906 20.15625 188.378906 20.195312 L 188.378906 21.203125 C 188.792969 20.8125 189.125 20.542969 189.359375 20.394531 C 189.714844 20.171875 190.082031 20.0625 190.464844 20.0625 C 190.773438 20.0625 191.054688 20.148438 191.308594 20.328125 C 191.800781 20.671875 192.046875 21.285156 192.046875 22.175781 L 192.046875 25.359375 C 192.046875 25.683594 192.113281 25.921875 192.246094 26.066406 C 192.378906 26.210938 192.597656 26.289062 192.902344 26.292969 L 192.902344 26.484375 L 189.992188 26.484375 L 189.992188 26.292969 C 190.324219 26.246094 190.558594 26.15625 190.6875 26.015625 C 190.820312 25.875 190.886719 25.574219 190.886719 25.113281 L 190.886719 22.203125 C 190.886719 21.8125 190.816406 21.488281 190.667969 21.230469 C 190.523438 20.976562 190.253906 20.847656 189.863281 20.847656 C 189.597656 20.847656 189.324219 20.9375 189.046875 21.121094 C 188.890625 21.222656 188.691406 21.394531 188.445312 21.636719 L 188.445312 25.457031 C 188.445312 25.78125 188.515625 26 188.664062 26.113281 C 188.808594 26.222656 189.039062 26.285156 189.355469 26.292969 L 189.355469 26.484375 L 186.375 26.484375 Z M 196.574219 20.054688 C 197.140625 20.054688 197.628906 20.199219 198.042969 20.496094 C 198.453125 20.789062 198.65625 21.109375 198.65625 21.457031 C 198.65625 21.609375 198.605469 21.75 198.5 21.878906 C 198.394531 22.007812 198.238281 22.074219 198.019531 22.074219 C 197.859375 22.074219 197.71875 22.019531 197.597656 21.910156 C 197.476562 21.800781 197.390625 21.640625 197.335938 21.429688 L 197.253906 21.105469 C 197.195312 20.863281 197.089844 20.695312 196.949219 20.59375 C 196.796875 20.5 196.601562 20.449219 196.355469 20.449219 C 195.835938 20.449219 195.398438 20.675781 195.042969 21.128906 C 194.683594 21.578125 194.503906 22.183594 194.503906 22.929688 C 194.503906 23.617188 194.703125 24.230469 195.097656 24.777344 C 195.492188 25.324219 196.019531 25.59375 196.6875 25.59375 C 197.160156 25.59375 197.582031 25.445312 197.949219 25.136719 C 198.160156 24.957031 198.394531 24.675781 198.65625 24.285156 L 198.847656 24.402344 C 198.589844 24.949219 198.320312 25.382812 198.03125 25.699219 C 197.480469 26.308594 196.847656 26.613281 196.121094 26.613281 C 195.414062 26.613281 194.785156 26.335938 194.238281 25.773438 C 193.695312 25.214844 193.421875 24.457031 193.421875 23.5 C 193.421875 22.558594 193.722656 21.746094 194.316406 21.070312 C 194.910156 20.390625 195.660156 20.054688 196.574219 20.054688 Z M 202.5 20.085938 C 203.136719 20.085938 203.699219 20.308594 204.179688 20.753906 C 204.664062 21.199219 204.902344 21.824219 204.902344 22.636719 L 200.574219 22.636719 C 200.621094 23.695312 200.859375 24.460938 201.289062 24.941406 C 201.722656 25.425781 202.234375 25.664062 202.824219 25.664062 C 203.300781 25.664062 203.703125 25.539062 204.03125 25.292969 C 204.355469 25.042969 204.660156 24.6875 204.9375 24.226562 L 205.175781 24.308594 C 204.988281 24.886719 204.640625 25.421875 204.128906 25.910156 C 203.621094 26.402344 202.992188 26.648438 202.253906 26.648438 C 201.394531 26.648438 200.738281 26.324219 200.269531 25.679688 C 199.808594 25.035156 199.574219 24.289062 199.574219 23.449219 C 199.574219 22.539062 199.839844 21.746094 200.382812 21.085938 C 200.925781 20.421875 201.628906 20.085938 202.5 20.085938 Z M 202.101562 20.585938 C 201.582031 20.585938 201.191406 20.816406 200.917969 21.273438 C 200.773438 21.519531 200.667969 21.828125 200.601562 22.203125 L 203.480469 22.203125 C 203.429688 21.746094 203.34375 21.40625 203.21875 21.1875 C 202.996094 20.789062 202.625 20.585938 202.101562 20.585938 Z M 139.601562 16.011719 "/>
<path fill="none" stroke-width="1" stroke-linecap="butt" stroke-linejoin="miter" stroke="rgb(0%, 0%, 0%)" stroke-opacity="1" stroke-miterlimit="4" d="M 153.04738 -216.572319 C 144.739466 -207.508429 134.449561 -196.282365 125.362168 -186.372407 " transform="matrix(0.997261, 0, 0, 0.997261, 3.989043, 255.654854)"/>
<path fill-rule="nonzero" fill="rgb(0%, 0%, 0%)" fill-opacity="1" stroke-width="1" stroke-linecap="butt" stroke-linejoin="miter" stroke="rgb(0%, 0%, 0%)" stroke-opacity="1" stroke-miterlimit="4" d="M 127.735858 -183.779366 L 118.397779 -178.773466 L 122.577196 -188.511077 Z M 127.735858 -183.779366 " transform="matrix(0.997261, 0, 0, 0.997261, 3.989043, 255.654854)"/>
<path fill="none" stroke-width="1" stroke-linecap="butt" stroke-linejoin="miter" stroke="rgb(0%, 0%, 0%)" stroke-opacity="1" stroke-miterlimit="4" d="M 167.884899 -215.875097 C 166.102673 -197.046176 161.558977 -167.155705 150.023472 -143.998521 C 144.849142 -133.606774 137.191447 -123.610642 129.553337 -115.102963 " transform="matrix(0.997261, 0, 0, 0.997261, 3.989043, 255.654854)"/>
<path fill-rule="nonzero" fill="rgb(0%, 0%, 0%)" fill-opacity="1" stroke-width="1" stroke-linecap="butt" stroke-linejoin="miter" stroke="rgb(0%, 0%, 0%)" stroke-opacity="1" stroke-miterlimit="4" d="M 132.021034 -112.619598 L 122.616366 -107.739041 L 126.92896 -117.417898 Z M 132.021034 -112.619598 " transform="matrix(0.997261, 0, 0, 0.997261, 3.989043, 255.654854)"/>
<path fill="none" stroke-width="1" stroke-linecap="butt" stroke-linejoin="miter" stroke="rgb(0%, 0%, 0%)" stroke-opacity="1" stroke-miterlimit="4" d="M 208.010438 -18.001038 C 208.010438 -8.059744 190.109841 0.00139989 168.021993 0.00139989 C 145.938062 0.00139989 128.037465 -8.059744 128.037465 -18.001038 C 128.037465 -27.942333 145.938062 -35.99956 168.021993 -35.99956 C 190.109841 -35.99956 208.010438 -27.942333 208.010438 -18.001038 Z M 208.010438 -18.001038 " transform="matrix(0.997261, 0, 0, 0.997261, 3.989043, 255.654854)"/>
<path fill-rule="nonzero" fill="rgb(0%, 0%, 0%)" fill-opacity="1" d="M 150.847656 241.636719 C 151.417969 241.601562 151.78125 241.515625 151.949219 241.386719 C 152.117188 241.253906 152.203125 240.917969 152.203125 240.378906 L 152.203125 234.167969 C 152.203125 233.652344 152.117188 233.324219 151.949219 233.175781 C 151.78125 233.03125 151.417969 232.941406 150.847656 232.914062 L 150.847656 232.65625 L 154.976562 232.65625 L 154.976562 232.914062 C 154.40625 232.941406 154.042969 233.03125 153.875 233.175781 C 153.707031 233.324219 153.621094 233.652344 153.621094 234.167969 L 153.621094 240.378906 C 153.621094 240.917969 153.707031 241.253906 153.875 241.386719 C 154.042969 241.515625 154.40625 241.601562 154.976562 241.636719 L 154.976562 241.890625 L 150.847656 241.890625 Z M 155.523438 241.699219 C 155.84375 241.65625 156.070312 241.582031 156.199219 241.460938 C 156.328125 241.339844 156.394531 241.070312 156.394531 240.652344 L 156.394531 237.195312 C 156.394531 236.90625 156.367188 236.699219 156.3125 236.582031 C 156.226562 236.40625 156.046875 236.320312 155.777344 236.320312 C 155.738281 236.320312 155.699219 236.324219 155.65625 236.328125 C 155.613281 236.332031 155.558594 236.339844 155.496094 236.347656 L 155.496094 236.109375 C 155.683594 236.054688 156.121094 235.917969 156.816406 235.691406 L 157.457031 235.476562 C 157.488281 235.476562 157.507812 235.488281 157.515625 235.511719 C 157.519531 235.535156 157.523438 235.566406 157.523438 235.605469 L 157.523438 236.609375 C 157.941406 236.21875 158.273438 235.949219 158.507812 235.804688 C 158.859375 235.582031 159.230469 235.472656 159.613281 235.472656 C 159.921875 235.472656 160.199219 235.558594 160.457031 235.738281 C 160.949219 236.078125 161.195312 236.695312 161.195312 237.582031 L 161.195312 240.765625 C 161.195312 241.09375 161.261719 241.332031 161.394531 241.476562 C 161.523438 241.621094 161.742188 241.695312 162.050781 241.699219 L 162.050781 241.890625 L 159.140625 241.890625 L 159.140625 241.699219 C 159.472656 241.652344 159.707031 241.566406 159.835938 241.425781 C 159.96875 241.285156 160.03125 240.984375 160.03125 240.519531 L 160.03125 237.609375 C 160.03125 237.222656 159.964844 236.898438 159.816406 236.640625 C 159.671875 236.382812 159.402344 236.253906 159.011719 236.253906 C 158.742188 236.253906 158.472656 236.34375 158.195312 236.527344 C 158.039062 236.632812 157.839844 236.804688 157.59375 237.046875 L 157.59375 240.863281 C 157.59375 241.191406 157.664062 241.410156 157.8125 241.523438 C 157.957031 241.632812 158.1875 241.691406 158.503906 241.699219 L 158.503906 241.890625 L 155.523438 241.890625 Z M 165.71875 235.464844 C 166.289062 235.464844 166.777344 235.609375 167.1875 235.90625 C 167.601562 236.195312 167.804688 236.515625 167.804688 236.867188 C 167.804688 237.019531 167.753906 237.160156 167.648438 237.289062 C 167.542969 237.414062 167.382812 237.480469 167.164062 237.480469 C 167.007812 237.480469 166.867188 237.425781 166.746094 237.320312 C 166.625 237.210938 166.539062 237.050781 166.484375 236.839844 L 166.402344 236.511719 C 166.34375 236.269531 166.238281 236.101562 166.09375 236 C 165.941406 235.910156 165.746094 235.859375 165.503906 235.859375 C 164.984375 235.859375 164.542969 236.082031 164.191406 236.535156 C 163.832031 236.988281 163.652344 237.589844 163.652344 238.339844 C 163.652344 239.023438 163.851562 239.640625 164.246094 240.1875 C 164.636719 240.730469 165.167969 241.003906 165.832031 241.003906 C 166.308594 241.003906 166.730469 240.851562 167.097656 240.542969 C 167.304688 240.363281 167.542969 240.085938 167.804688 239.695312 L 167.996094 239.8125 C 167.738281 240.355469 167.464844 240.789062 167.175781 241.109375 C 166.628906 241.714844 165.992188 242.019531 165.269531 242.019531 C 164.558594 242.019531 163.933594 241.742188 163.386719 241.183594 C 162.839844 240.621094 162.570312 239.867188 162.570312 238.90625 C 162.570312 237.964844 162.867188 237.15625 163.464844 236.476562 C 164.058594 235.800781 164.808594 235.464844 165.71875 235.464844 Z M 168.800781 238.730469 C 168.800781 237.824219 169.089844 237.0625 169.664062 236.433594 C 170.238281 235.8125 170.980469 235.496094 171.882812 235.496094 C 172.785156 235.496094 173.527344 235.792969 174.121094 236.382812 C 174.710938 236.976562 175.007812 237.761719 175.007812 238.746094 C 175.007812 239.648438 174.71875 240.433594 174.148438 241.101562 C 173.574219 241.765625 172.832031 242.101562 171.921875 242.101562 C 171.050781 242.101562 170.3125 241.78125 169.710938 241.144531 C 169.105469 240.5 168.800781 239.695312 168.800781 238.730469 Z M 171.691406 235.910156 C 171.335938 235.910156 171.023438 236.023438 170.757812 236.257812 C 170.300781 236.671875 170.074219 237.386719 170.074219 238.402344 C 170.074219 239.210938 170.257812 239.964844 170.625 240.664062 C 170.992188 241.367188 171.496094 241.710938 172.148438 241.710938 C 172.660156 241.710938 173.050781 241.480469 173.324219 241.011719 C 173.601562 240.542969 173.738281 239.933594 173.738281 239.171875 C 173.738281 238.386719 173.5625 237.644531 173.210938 236.949219 C 172.859375 236.253906 172.355469 235.910156 171.691406 235.910156 Z M 175.652344 241.710938 C 176.007812 241.679688 176.242188 241.625 176.363281 241.539062 C 176.542969 241.40625 176.636719 241.144531 176.636719 240.746094 L 176.636719 237.222656 C 176.636719 236.886719 176.589844 236.664062 176.503906 236.5625 C 176.414062 236.457031 176.265625 236.402344 176.0625 236.402344 C 175.964844 236.402344 175.894531 236.40625 175.847656 236.417969 C 175.800781 236.425781 175.742188 236.441406 175.679688 236.464844 L 175.679688 236.226562 L 176.171875 236.0625 C 176.347656 236.003906 176.640625 235.898438 177.046875 235.746094 C 177.449219 235.589844 177.660156 235.511719 177.683594 235.511719 C 177.707031 235.511719 177.722656 235.523438 177.726562 235.546875 C 177.730469 235.570312 177.734375 235.613281 177.734375 235.675781 L 177.734375 236.59375 C 178.183594 236.183594 178.570312 235.90625 178.898438 235.746094 C 179.226562 235.589844 179.5625 235.511719 179.90625 235.511719 C 180.375 235.511719 180.75 235.671875 181.027344 235.984375 C 181.171875 236.160156 181.292969 236.394531 181.386719 236.691406 C 181.722656 236.347656 182.015625 236.09375 182.265625 235.933594 C 182.699219 235.652344 183.136719 235.511719 183.589844 235.511719 C 184.320312 235.511719 184.808594 235.808594 185.054688 236.402344 C 185.195312 236.742188 185.265625 237.273438 185.265625 238 L 185.265625 240.828125 C 185.265625 241.152344 185.339844 241.371094 185.480469 241.488281 C 185.621094 241.605469 185.878906 241.675781 186.253906 241.710938 L 186.253906 241.890625 L 183.179688 241.890625 L 183.179688 241.699219 C 183.574219 241.664062 183.835938 241.585938 183.960938 241.464844 C 184.085938 241.339844 184.148438 241.089844 184.148438 240.710938 L 184.148438 237.773438 C 184.148438 237.335938 184.101562 237.007812 184.007812 236.800781 C 183.835938 236.425781 183.507812 236.238281 183.015625 236.238281 C 182.722656 236.238281 182.429688 236.335938 182.136719 236.53125 C 181.96875 236.648438 181.761719 236.828125 181.515625 237.078125 L 181.515625 240.566406 C 181.515625 240.9375 181.578125 241.21875 181.710938 241.410156 C 181.839844 241.601562 182.113281 241.699219 182.535156 241.710938 L 182.535156 241.890625 L 179.402344 241.890625 L 179.402344 241.710938 C 179.835938 241.65625 180.109375 241.558594 180.226562 241.402344 C 180.34375 241.246094 180.40625 240.867188 180.40625 240.261719 L 180.40625 238.355469 C 180.40625 237.652344 180.359375 237.171875 180.265625 236.910156 C 180.117188 236.460938 179.800781 236.238281 179.316406 236.238281 C 179.035156 236.238281 178.761719 236.316406 178.496094 236.46875 C 178.230469 236.621094 177.992188 236.820312 177.789062 237.066406 L 177.789062 240.792969 C 177.789062 241.140625 177.847656 241.378906 177.96875 241.511719 C 178.089844 241.640625 178.351562 241.707031 178.753906 241.710938 L 178.753906 241.890625 L 175.652344 241.890625 Z M 189.488281 235.496094 C 190.125 235.496094 190.6875 235.71875 191.171875 236.160156 C 191.652344 236.605469 191.890625 237.234375 191.890625 238.046875 L 187.5625 238.046875 C 187.609375 239.101562 187.847656 239.871094 188.28125 240.347656 C 188.710938 240.832031 189.222656 241.074219 189.816406 241.074219 C 190.289062 241.074219 190.691406 240.949219 191.019531 240.699219 C 191.34375 240.449219 191.648438 240.097656 191.925781 239.636719 L 192.164062 239.71875 C 191.976562 240.292969 191.628906 240.828125 191.121094 241.320312 C 190.609375 241.808594 189.980469 242.054688 189.242188 242.054688 C 188.386719 242.054688 187.726562 241.730469 187.257812 241.089844 C 186.796875 240.441406 186.5625 239.699219 186.5625 238.855469 C 186.5625 237.945312 186.832031 237.15625 187.371094 236.492188 C 187.914062 235.832031 188.617188 235.496094 189.488281 235.496094 Z M 189.089844 235.992188 C 188.570312 235.992188 188.179688 236.222656 187.90625 236.683594 C 187.761719 236.929688 187.65625 237.238281 187.589844 237.609375 L 190.46875 237.609375 C 190.417969 237.15625 190.332031 236.816406 190.207031 236.59375 C 189.984375 236.195312 189.613281 235.992188 189.089844 235.992188 Z M 150.621094 231.421875 "/>
<path fill="none" stroke-width="1" stroke-linecap="butt" stroke-linejoin="miter" stroke="rgb(0%, 0%, 0%)" stroke-opacity="1" stroke-miterlimit="4" d="M 181.42198 -216.196289 C 200.807113 -186.04338 234.187613 -123.203277 215.021832 -72.000519 C 210.709237 -60.476765 202.706848 -49.791245 194.508609 -41.017211 " transform="matrix(0.997261, 0, 0, 0.997261, 3.989043, 255.654854)"/>
<path fill-rule="nonzero" fill="rgb(0%, 0%, 0%)" fill-opacity="1" stroke-width="1" stroke-linecap="butt" stroke-linejoin="miter" stroke="rgb(0%, 0%, 0%)" stroke-opacity="1" stroke-miterlimit="4" d="M 196.878382 -38.439838 L 187.340537 -33.825636 L 191.919486 -43.379149 Z M 196.878382 -38.439838 " transform="matrix(0.997261, 0, 0, 0.997261, 3.989043, 255.654854)"/>
<path fill="none" stroke-width="1" stroke-linecap="butt" stroke-linejoin="miter" stroke="rgb(0%, 0%, 0%)" stroke-opacity="1" stroke-miterlimit="4" d="M 119.091084 -72.200285 C 127.160062 -63.265655 137.062186 -52.294195 145.844055 -42.568334 " transform="matrix(0.997261, 0, 0, 0.997261, 3.989043, 255.654854)"/>
<path fill-rule="nonzero" fill="rgb(0%, 0%, 0%)" fill-opacity="1" stroke-width="1" stroke-linecap="butt" stroke-linejoin="miter" stroke="rgb(0%, 0%, 0%)" stroke-opacity="1" stroke-miterlimit="4" d="M 148.484099 -44.863684 L 152.589094 -35.098654 L 143.290184 -40.17506 Z M 148.484099 -44.863684 " transform="matrix(0.997261, 0, 0, 0.997261, 3.989043, 255.654854)"/>
</svg>
